<mxfile host="app.diagrams.net" modified="2022-12-30T13:37:57.189Z" agent="5.0 (Windows NT 10.0; Win64; x64) AppleWebKit/537.36 (KHTML, like Gecko) Chrome/107.0.0.0 Safari/537.36 OPR/93.0.0.0 (Edition Yx GX)" etag="3N496C918XWjGSDSucu2" version="20.6.2" type="github">
  <diagram name="Page-1" id="9f46799a-70d6-7492-0946-bef42562c5a5">
    <mxGraphModel dx="2554" dy="1654" grid="1" gridSize="10" guides="1" tooltips="1" connect="1" arrows="1" fold="1" page="1" pageScale="1" pageWidth="1100" pageHeight="850" background="none" math="0" shadow="0">
      <root>
        <mxCell id="0" />
        <mxCell id="1" parent="0" />
        <mxCell id="t7ZCOfmZ1178p3XGN3lE-9" value="" style="edgeStyle=orthogonalEdgeStyle;rounded=0;orthogonalLoop=1;jettySize=auto;html=1;" edge="1" parent="1" source="t7ZCOfmZ1178p3XGN3lE-1" target="t7ZCOfmZ1178p3XGN3lE-2">
          <mxGeometry relative="1" as="geometry" />
        </mxCell>
        <mxCell id="t7ZCOfmZ1178p3XGN3lE-38" style="edgeStyle=orthogonalEdgeStyle;rounded=0;orthogonalLoop=1;jettySize=auto;html=1;exitX=1;exitY=0.5;exitDx=0;exitDy=0;exitPerimeter=0;entryX=0.5;entryY=0;entryDx=0;entryDy=0;fontColor=#000000;" edge="1" parent="1" source="t7ZCOfmZ1178p3XGN3lE-1" target="t7ZCOfmZ1178p3XGN3lE-6">
          <mxGeometry relative="1" as="geometry" />
        </mxCell>
        <mxCell id="t7ZCOfmZ1178p3XGN3lE-86" style="edgeStyle=orthogonalEdgeStyle;rounded=0;jumpStyle=sharp;orthogonalLoop=1;jettySize=auto;html=1;fontColor=#000000;" edge="1" parent="1" source="t7ZCOfmZ1178p3XGN3lE-1" target="t7ZCOfmZ1178p3XGN3lE-87">
          <mxGeometry relative="1" as="geometry">
            <mxPoint x="55" y="395" as="targetPoint" />
          </mxGeometry>
        </mxCell>
        <mxCell id="t7ZCOfmZ1178p3XGN3lE-1" value="Start" style="strokeWidth=2;html=1;shape=mxgraph.flowchart.start_1;whiteSpace=wrap;" vertex="1" parent="1">
          <mxGeometry y="20" width="110" height="70" as="geometry" />
        </mxCell>
        <mxCell id="t7ZCOfmZ1178p3XGN3lE-11" style="edgeStyle=orthogonalEdgeStyle;rounded=0;orthogonalLoop=1;jettySize=auto;html=1;entryX=0;entryY=0.5;entryDx=0;entryDy=0;" edge="1" parent="1" source="t7ZCOfmZ1178p3XGN3lE-2" target="t7ZCOfmZ1178p3XGN3lE-10">
          <mxGeometry relative="1" as="geometry" />
        </mxCell>
        <mxCell id="t7ZCOfmZ1178p3XGN3lE-2" value="Подключение&amp;nbsp;&lt;br&gt;к&amp;nbsp;&lt;br&gt;Discord API" style="shape=display;whiteSpace=wrap;html=1;" vertex="1" parent="1">
          <mxGeometry x="170" y="20" width="130" height="70" as="geometry" />
        </mxCell>
        <mxCell id="t7ZCOfmZ1178p3XGN3lE-6" value="DataBase" style="shape=datastore;whiteSpace=wrap;html=1;" vertex="1" parent="1">
          <mxGeometry x="120" y="150" width="60" height="60" as="geometry" />
        </mxCell>
        <mxCell id="t7ZCOfmZ1178p3XGN3lE-29" value="" style="edgeStyle=orthogonalEdgeStyle;rounded=0;orthogonalLoop=1;jettySize=auto;html=1;fontColor=#000000;shape=flexArrow;" edge="1" parent="1" source="t7ZCOfmZ1178p3XGN3lE-10" target="t7ZCOfmZ1178p3XGN3lE-17">
          <mxGeometry relative="1" as="geometry" />
        </mxCell>
        <mxCell id="t7ZCOfmZ1178p3XGN3lE-31" style="edgeStyle=orthogonalEdgeStyle;rounded=0;orthogonalLoop=1;jettySize=auto;html=1;exitX=1;exitY=0.5;exitDx=0;exitDy=0;fontColor=#000000;shape=flexArrow;" edge="1" parent="1" source="t7ZCOfmZ1178p3XGN3lE-10">
          <mxGeometry relative="1" as="geometry">
            <mxPoint x="540.0000000000005" y="160" as="targetPoint" />
          </mxGeometry>
        </mxCell>
        <mxCell id="t7ZCOfmZ1178p3XGN3lE-40" style="edgeStyle=orthogonalEdgeStyle;rounded=0;jumpStyle=sharp;orthogonalLoop=1;jettySize=auto;html=1;exitX=1;exitY=0.5;exitDx=0;exitDy=0;fontColor=#000000;shape=flexArrow;" edge="1" parent="1" source="t7ZCOfmZ1178p3XGN3lE-10">
          <mxGeometry relative="1" as="geometry">
            <mxPoint x="500.00000000000045" y="390" as="targetPoint" />
          </mxGeometry>
        </mxCell>
        <mxCell id="t7ZCOfmZ1178p3XGN3lE-83" style="edgeStyle=orthogonalEdgeStyle;rounded=0;jumpStyle=sharp;orthogonalLoop=1;jettySize=auto;html=1;fontColor=#000000;" edge="1" parent="1" source="t7ZCOfmZ1178p3XGN3lE-10" target="t7ZCOfmZ1178p3XGN3lE-82">
          <mxGeometry relative="1" as="geometry" />
        </mxCell>
        <mxCell id="t7ZCOfmZ1178p3XGN3lE-10" value="Определение Global&amp;nbsp;&lt;br&gt;переменных" style="rounded=1;whiteSpace=wrap;html=1;" vertex="1" parent="1">
          <mxGeometry x="360" y="25" width="120" height="60" as="geometry" />
        </mxCell>
        <mxCell id="t7ZCOfmZ1178p3XGN3lE-21" style="edgeStyle=orthogonalEdgeStyle;rounded=0;orthogonalLoop=1;jettySize=auto;html=1;" edge="1" parent="1" source="t7ZCOfmZ1178p3XGN3lE-17" target="t7ZCOfmZ1178p3XGN3lE-20">
          <mxGeometry relative="1" as="geometry" />
        </mxCell>
        <mxCell id="t7ZCOfmZ1178p3XGN3lE-17" value="Async def on_ready&lt;br&gt;" style="shape=step;perimeter=stepPerimeter;whiteSpace=wrap;html=1;fixedSize=1;" vertex="1" parent="1">
          <mxGeometry x="580" y="15" width="150" height="80" as="geometry" />
        </mxCell>
        <mxCell id="t7ZCOfmZ1178p3XGN3lE-25" style="edgeStyle=orthogonalEdgeStyle;rounded=0;orthogonalLoop=1;jettySize=auto;html=1;exitX=0;exitY=0;exitDx=130;exitDy=50;exitPerimeter=0;fontColor=#000000;" edge="1" parent="1" source="t7ZCOfmZ1178p3XGN3lE-20" target="t7ZCOfmZ1178p3XGN3lE-24">
          <mxGeometry relative="1" as="geometry" />
        </mxCell>
        <mxCell id="t7ZCOfmZ1178p3XGN3lE-20" value="&lt;span style=&quot;font-family: ui-monospace, SFMono-Regular, &amp;quot;SF Mono&amp;quot;, Menlo, Consolas, &amp;quot;Liberation Mono&amp;quot;, monospace; text-align: start;&quot;&gt; &lt;/span&gt;&lt;span style=&quot;background-color: rgb(255, 255, 255);&quot;&gt;&lt;span style=&quot;box-sizing: border-box; font-family: ui-monospace, SFMono-Regular, &amp;quot;SF Mono&amp;quot;, Menlo, Consolas, &amp;quot;Liberation Mono&amp;quot;, monospace; text-align: start;&quot; class=&quot;pl-k&quot;&gt;for&lt;/span&gt;&lt;span style=&quot;font-family: ui-monospace, SFMono-Regular, &amp;quot;SF Mono&amp;quot;, Menlo, Consolas, &amp;quot;Liberation Mono&amp;quot;, monospace; text-align: start;&quot;&gt; &lt;/span&gt;&lt;span style=&quot;box-sizing: border-box; font-family: ui-monospace, SFMono-Regular, &amp;quot;SF Mono&amp;quot;, Menlo, Consolas, &amp;quot;Liberation Mono&amp;quot;, monospace; text-align: start;&quot; class=&quot;pl-s1&quot;&gt;&lt;span style=&quot;box-sizing: border-box;&quot; data-hydro-click-hmac=&quot;2709f472d1348329b3521dda8397fa52a47083faf63a09d850aeb269e52d9eb9&quot; data-hydro-click=&quot;{&amp;quot;event_type&amp;quot;:&amp;quot;code_navigation.click_on_symbol&amp;quot;,&amp;quot;payload&amp;quot;:{&amp;quot;action&amp;quot;:&amp;quot;click_on_symbol&amp;quot;,&amp;quot;repository_id&amp;quot;:571270798,&amp;quot;ref&amp;quot;:&amp;quot;main&amp;quot;,&amp;quot;language&amp;quot;:&amp;quot;Python&amp;quot;,&amp;quot;backend&amp;quot;:&amp;quot;ALEPH_PRECISE&amp;quot;,&amp;quot;code_nav_context&amp;quot;:&amp;quot;BLOB_VIEW&amp;quot;,&amp;quot;retry_backend&amp;quot;:&amp;quot;&amp;quot;,&amp;quot;cross_repo_results_included&amp;quot;:&amp;quot;CROSS_REPO_ENABLED&amp;quot;,&amp;quot;in_repo_result_count&amp;quot;:1,&amp;quot;cross_repo_result_count&amp;quot;:0,&amp;quot;originating_url&amp;quot;:&amp;quot;https://github.com/SOLIDusr/sabo/find-definition?q=filename&amp;amp;blob_path=main.py&amp;amp;ref=main&amp;amp;language=Python&amp;amp;row=37&amp;amp;col=12&amp;amp;code_nav_context=BLOB_VIEW&amp;quot;,&amp;quot;user_id&amp;quot;:118432431}}&quot; class=&quot;pl-token&quot;&gt;filename&lt;/span&gt;&lt;/span&gt;&lt;span style=&quot;font-family: ui-monospace, SFMono-Regular, &amp;quot;SF Mono&amp;quot;, Menlo, Consolas, &amp;quot;Liberation Mono&amp;quot;, monospace; text-align: start;&quot;&gt; &lt;/span&gt;&lt;span style=&quot;box-sizing: border-box; font-family: ui-monospace, SFMono-Regular, &amp;quot;SF Mono&amp;quot;, Menlo, Consolas, &amp;quot;Liberation Mono&amp;quot;, monospace; text-align: start;&quot; class=&quot;pl-c1&quot;&gt;in&lt;/span&gt;&lt;span style=&quot;font-family: ui-monospace, SFMono-Regular, &amp;quot;SF Mono&amp;quot;, Menlo, Consolas, &amp;quot;Liberation Mono&amp;quot;, monospace; text-align: start;&quot;&gt; &lt;/span&gt;&lt;span style=&quot;box-sizing: border-box; font-family: ui-monospace, SFMono-Regular, &amp;quot;SF Mono&amp;quot;, Menlo, Consolas, &amp;quot;Liberation Mono&amp;quot;, monospace; text-align: start;&quot; class=&quot;pl-s1&quot;&gt;&lt;span style=&quot;box-sizing: border-box;&quot; data-hydro-click-hmac=&quot;dca1d906474da8fff63916e82cbf3ae94f3667a883f508943b82ddb728b173c5&quot; data-hydro-click=&quot;{&amp;quot;event_type&amp;quot;:&amp;quot;code_navigation.click_on_symbol&amp;quot;,&amp;quot;payload&amp;quot;:{&amp;quot;action&amp;quot;:&amp;quot;click_on_symbol&amp;quot;,&amp;quot;repository_id&amp;quot;:571270798,&amp;quot;ref&amp;quot;:&amp;quot;main&amp;quot;,&amp;quot;language&amp;quot;:&amp;quot;Python&amp;quot;,&amp;quot;backend&amp;quot;:&amp;quot;ALEPH_PRECISE&amp;quot;,&amp;quot;code_nav_context&amp;quot;:&amp;quot;BLOB_VIEW&amp;quot;,&amp;quot;retry_backend&amp;quot;:&amp;quot;&amp;quot;,&amp;quot;cross_repo_results_included&amp;quot;:&amp;quot;CROSS_REPO_ENABLED&amp;quot;,&amp;quot;in_repo_result_count&amp;quot;:1,&amp;quot;cross_repo_result_count&amp;quot;:1,&amp;quot;originating_url&amp;quot;:&amp;quot;https://github.com/SOLIDusr/sabo/find-definition?q=os&amp;amp;blob_path=main.py&amp;amp;ref=main&amp;amp;language=Python&amp;amp;row=37&amp;amp;col=24&amp;amp;code_nav_context=BLOB_VIEW&amp;quot;,&amp;quot;user_id&amp;quot;:118432431}}&quot; class=&quot;pl-token&quot;&gt;os&lt;/span&gt;&lt;/span&gt;&lt;span style=&quot;font-family: ui-monospace, SFMono-Regular, &amp;quot;SF Mono&amp;quot;, Menlo, Consolas, &amp;quot;Liberation Mono&amp;quot;, monospace; text-align: start;&quot;&gt;.&lt;/span&gt;&lt;span style=&quot;box-sizing: border-box; font-family: ui-monospace, SFMono-Regular, &amp;quot;SF Mono&amp;quot;, Menlo, Consolas, &amp;quot;Liberation Mono&amp;quot;, monospace; text-align: start;&quot; class=&quot;pl-en&quot;&gt;&lt;span style=&quot;box-sizing: border-box;&quot; data-hydro-click-hmac=&quot;b341691f6743bcb886b9175497640a245d4c138b7dff6f13d98f5f5079efc001&quot; data-hydro-click=&quot;{&amp;quot;event_type&amp;quot;:&amp;quot;code_navigation.click_on_symbol&amp;quot;,&amp;quot;payload&amp;quot;:{&amp;quot;action&amp;quot;:&amp;quot;click_on_symbol&amp;quot;,&amp;quot;repository_id&amp;quot;:571270798,&amp;quot;ref&amp;quot;:&amp;quot;main&amp;quot;,&amp;quot;language&amp;quot;:&amp;quot;Python&amp;quot;,&amp;quot;backend&amp;quot;:&amp;quot;ALEPH_PRECISE&amp;quot;,&amp;quot;code_nav_context&amp;quot;:&amp;quot;BLOB_VIEW&amp;quot;,&amp;quot;retry_backend&amp;quot;:&amp;quot;&amp;quot;,&amp;quot;cross_repo_results_included&amp;quot;:&amp;quot;CROSS_REPO_ENABLED&amp;quot;,&amp;quot;in_repo_result_count&amp;quot;:0,&amp;quot;cross_repo_result_count&amp;quot;:0,&amp;quot;originating_url&amp;quot;:&amp;quot;https://github.com/SOLIDusr/sabo/find-definition?q=listdir&amp;amp;blob_path=main.py&amp;amp;ref=main&amp;amp;language=Python&amp;amp;row=37&amp;amp;col=27&amp;amp;code_nav_context=BLOB_VIEW&amp;quot;,&amp;quot;user_id&amp;quot;:118432431}}&quot; class=&quot;pl-token&quot;&gt;listdir&lt;/span&gt;&lt;/span&gt;&lt;/span&gt;" style="html=1;dashed=0;whitespace=wrap;shape=mxgraph.dfd.loop" vertex="1" parent="1">
          <mxGeometry x="890" y="25" width="140" height="50" as="geometry" />
        </mxCell>
        <mxCell id="t7ZCOfmZ1178p3XGN3lE-23" value="if __name__ == __main__" style="rhombus;whiteSpace=wrap;html=1;" vertex="1" parent="1">
          <mxGeometry x="740" y="-5" width="130" height="110" as="geometry" />
        </mxCell>
        <mxCell id="t7ZCOfmZ1178p3XGN3lE-28" style="edgeStyle=orthogonalEdgeStyle;rounded=0;orthogonalLoop=1;jettySize=auto;html=1;fontColor=#000000;" edge="1" parent="1" source="t7ZCOfmZ1178p3XGN3lE-24">
          <mxGeometry relative="1" as="geometry">
            <mxPoint x="1270" y="235" as="targetPoint" />
          </mxGeometry>
        </mxCell>
        <mxCell id="t7ZCOfmZ1178p3XGN3lE-24" value="&lt;span style=&quot;background-color: rgb(255, 237, 247);&quot;&gt;&lt;span style=&quot;box-sizing: border-box; font-family: ui-monospace, SFMono-Regular, &amp;quot;SF Mono&amp;quot;, Menlo, Consolas, &amp;quot;Liberation Mono&amp;quot;, monospace; text-align: start;&quot; class=&quot;pl-k&quot;&gt;await&lt;/span&gt;&lt;span style=&quot;font-family: ui-monospace, SFMono-Regular, &amp;quot;SF Mono&amp;quot;, Menlo, Consolas, &amp;quot;Liberation Mono&amp;quot;, monospace; text-align: start;&quot;&gt; &lt;/span&gt;&lt;span style=&quot;box-sizing: border-box; font-family: ui-monospace, SFMono-Regular, &amp;quot;SF Mono&amp;quot;, Menlo, Consolas, &amp;quot;Liberation Mono&amp;quot;, monospace; text-align: start;&quot; class=&quot;pl-s1&quot;&gt;&lt;span style=&quot;box-sizing: border-box;&quot; data-hydro-click-hmac=&quot;689e6fc470f6f091f1a0526340e10e352fbba7c71f352a2f5b29b6c409d48d08&quot; data-hydro-click=&quot;{&amp;quot;event_type&amp;quot;:&amp;quot;code_navigation.click_on_symbol&amp;quot;,&amp;quot;payload&amp;quot;:{&amp;quot;action&amp;quot;:&amp;quot;click_on_symbol&amp;quot;,&amp;quot;repository_id&amp;quot;:571270798,&amp;quot;ref&amp;quot;:&amp;quot;main&amp;quot;,&amp;quot;language&amp;quot;:&amp;quot;Python&amp;quot;,&amp;quot;backend&amp;quot;:&amp;quot;ALEPH_PRECISE&amp;quot;,&amp;quot;code_nav_context&amp;quot;:&amp;quot;BLOB_VIEW&amp;quot;,&amp;quot;retry_backend&amp;quot;:&amp;quot;&amp;quot;,&amp;quot;cross_repo_results_included&amp;quot;:&amp;quot;CROSS_REPO_ENABLED&amp;quot;,&amp;quot;in_repo_result_count&amp;quot;:1,&amp;quot;cross_repo_result_count&amp;quot;:0,&amp;quot;originating_url&amp;quot;:&amp;quot;https://github.com/SOLIDusr/sabo/find-definition?q=bot&amp;amp;blob_path=main.py&amp;amp;ref=main&amp;amp;language=Python&amp;amp;row=39&amp;amp;col=22&amp;amp;code_nav_context=BLOB_VIEW&amp;quot;,&amp;quot;user_id&amp;quot;:118432431}}&quot; class=&quot;pl-token&quot;&gt;bot&lt;/span&gt;&lt;/span&gt;&lt;span style=&quot;font-family: ui-monospace, SFMono-Regular, &amp;quot;SF Mono&amp;quot;, Menlo, Consolas, &amp;quot;Liberation Mono&amp;quot;, monospace; text-align: start;&quot;&gt;.&lt;/span&gt;&lt;span style=&quot;box-sizing: border-box; font-family: ui-monospace, SFMono-Regular, &amp;quot;SF Mono&amp;quot;, Menlo, Consolas, &amp;quot;Liberation Mono&amp;quot;, monospace; text-align: start;&quot; class=&quot;pl-en&quot;&gt;&lt;span style=&quot;box-sizing: border-box;&quot; data-hydro-click-hmac=&quot;1bc55bd1c4c834637e6f79a7555eb74ee7f94b711b2ae7af51d54fb56abfd664&quot; data-hydro-click=&quot;{&amp;quot;event_type&amp;quot;:&amp;quot;code_navigation.click_on_symbol&amp;quot;,&amp;quot;payload&amp;quot;:{&amp;quot;action&amp;quot;:&amp;quot;click_on_symbol&amp;quot;,&amp;quot;repository_id&amp;quot;:571270798,&amp;quot;ref&amp;quot;:&amp;quot;main&amp;quot;,&amp;quot;language&amp;quot;:&amp;quot;Python&amp;quot;,&amp;quot;backend&amp;quot;:&amp;quot;ALEPH_PRECISE&amp;quot;,&amp;quot;code_nav_context&amp;quot;:&amp;quot;BLOB_VIEW&amp;quot;,&amp;quot;retry_backend&amp;quot;:&amp;quot;&amp;quot;,&amp;quot;cross_repo_results_included&amp;quot;:&amp;quot;CROSS_REPO_ENABLED&amp;quot;,&amp;quot;in_repo_result_count&amp;quot;:0,&amp;quot;cross_repo_result_count&amp;quot;:0,&amp;quot;originating_url&amp;quot;:&amp;quot;https://github.com/SOLIDusr/sabo/find-definition?q=load_extension&amp;amp;blob_path=main.py&amp;amp;ref=main&amp;amp;language=Python&amp;amp;row=39&amp;amp;col=26&amp;amp;code_nav_context=BLOB_VIEW&amp;quot;,&amp;quot;user_id&amp;quot;:118432431}}&quot; class=&quot;pl-token&quot;&gt;load_extension&lt;/span&gt;&lt;/span&gt;&lt;span style=&quot;font-family: ui-monospace, SFMono-Regular, &amp;quot;SF Mono&amp;quot;, Menlo, Consolas, &amp;quot;Liberation Mono&amp;quot;, monospace; text-align: start;&quot;&gt;(&lt;/span&gt;&lt;span style=&quot;box-sizing: border-box; font-family: ui-monospace, SFMono-Regular, &amp;quot;SF Mono&amp;quot;, Menlo, Consolas, &amp;quot;Liberation Mono&amp;quot;, monospace; text-align: start;&quot; class=&quot;pl-s&quot;&gt;f&quot;cogs.&lt;span style=&quot;box-sizing: border-box;&quot; class=&quot;pl-s1&quot;&gt;&lt;span style=&quot;box-sizing: border-box;&quot; class=&quot;pl-kos&quot;&gt;{&lt;/span&gt;&lt;span style=&quot;box-sizing: border-box;&quot; class=&quot;pl-s1&quot;&gt;&lt;span style=&quot;box-sizing: border-box;&quot; data-hydro-click-hmac=&quot;618f26fecdd8a64e50eef2fff4af7bc4067c5187c0c4c208fee9fb73cd676a6c&quot; data-hydro-click=&quot;{&amp;quot;event_type&amp;quot;:&amp;quot;code_navigation.click_on_symbol&amp;quot;,&amp;quot;payload&amp;quot;:{&amp;quot;action&amp;quot;:&amp;quot;click_on_symbol&amp;quot;,&amp;quot;repository_id&amp;quot;:571270798,&amp;quot;ref&amp;quot;:&amp;quot;main&amp;quot;,&amp;quot;language&amp;quot;:&amp;quot;Python&amp;quot;,&amp;quot;backend&amp;quot;:&amp;quot;ALEPH_PRECISE&amp;quot;,&amp;quot;code_nav_context&amp;quot;:&amp;quot;BLOB_VIEW&amp;quot;,&amp;quot;retry_backend&amp;quot;:&amp;quot;&amp;quot;,&amp;quot;cross_repo_results_included&amp;quot;:&amp;quot;CROSS_REPO_ENABLED&amp;quot;,&amp;quot;in_repo_result_count&amp;quot;:1,&amp;quot;cross_repo_result_count&amp;quot;:0,&amp;quot;originating_url&amp;quot;:&amp;quot;https://github.com/SOLIDusr/sabo/find-definition?q=filename&amp;amp;blob_path=main.py&amp;amp;ref=main&amp;amp;language=Python&amp;amp;row=39&amp;amp;col=49&amp;amp;code_nav_context=BLOB_VIEW&amp;quot;,&amp;quot;user_id&amp;quot;:118432431}}&quot; class=&quot;pl-token&quot;&gt;filename&lt;/span&gt;&lt;/span&gt;[:&lt;span style=&quot;box-sizing: border-box;&quot; class=&quot;pl-c1&quot;&gt;-&lt;/span&gt;&lt;span style=&quot;box-sizing: border-box;&quot; class=&quot;pl-c1&quot;&gt;3&lt;/span&gt;]&lt;span style=&quot;box-sizing: border-box;&quot; class=&quot;pl-kos&quot;&gt;}&lt;/span&gt;&lt;/span&gt;&quot;&lt;/span&gt;&lt;span style=&quot;font-family: ui-monospace, SFMono-Regular, &amp;quot;SF Mono&amp;quot;, Menlo, Consolas, &amp;quot;Liberation Mono&amp;quot;, monospace; text-align: start;&quot;&gt;)&lt;/span&gt;&lt;/span&gt;" style="html=1;dashed=0;whitespace=wrap;shape=mxgraph.dfd.loop;labelBackgroundColor=#FFFFFF;fontColor=#000000;" vertex="1" parent="1">
          <mxGeometry x="950" y="210" width="140" height="50" as="geometry" />
        </mxCell>
        <mxCell id="t7ZCOfmZ1178p3XGN3lE-26" value="&lt;span style=&quot;background-color: rgb(255, 255, 255);&quot;&gt;&lt;span style=&quot;box-sizing: border-box; color: var(--color-prettylights-syntax-keyword); font-family: ui-monospace, SFMono-Regular, &amp;quot;SF Mono&amp;quot;, Menlo, Consolas, &amp;quot;Liberation Mono&amp;quot;, monospace; text-align: start;&quot; class=&quot;pl-k&quot;&gt;if&lt;/span&gt;&lt;span style=&quot;color: rgb(201, 209, 217); font-family: ui-monospace, SFMono-Regular, &amp;quot;SF Mono&amp;quot;, Menlo, Consolas, &amp;quot;Liberation Mono&amp;quot;, monospace; text-align: start;&quot;&gt; &lt;/span&gt;&lt;span style=&quot;box-sizing: border-box; font-family: ui-monospace, SFMono-Regular, &amp;quot;SF Mono&amp;quot;, Menlo, Consolas, &amp;quot;Liberation Mono&amp;quot;, monospace; text-align: start;&quot; class=&quot;pl-s1&quot;&gt;&lt;span style=&quot;box-sizing: border-box;&quot; data-hydro-click-hmac=&quot;3f99242338ca0ac0b819d825556a4ebeaa0afd6c2d3ea71a7850abc61dfd66b3&quot; data-hydro-click=&quot;{&amp;quot;event_type&amp;quot;:&amp;quot;code_navigation.click_on_symbol&amp;quot;,&amp;quot;payload&amp;quot;:{&amp;quot;action&amp;quot;:&amp;quot;click_on_symbol&amp;quot;,&amp;quot;repository_id&amp;quot;:571270798,&amp;quot;ref&amp;quot;:&amp;quot;main&amp;quot;,&amp;quot;language&amp;quot;:&amp;quot;Python&amp;quot;,&amp;quot;backend&amp;quot;:&amp;quot;ALEPH_PRECISE&amp;quot;,&amp;quot;code_nav_context&amp;quot;:&amp;quot;BLOB_VIEW&amp;quot;,&amp;quot;retry_backend&amp;quot;:&amp;quot;&amp;quot;,&amp;quot;cross_repo_results_included&amp;quot;:&amp;quot;CROSS_REPO_ENABLED&amp;quot;,&amp;quot;in_repo_result_count&amp;quot;:1,&amp;quot;cross_repo_result_count&amp;quot;:0,&amp;quot;originating_url&amp;quot;:&amp;quot;https://github.com/SOLIDusr/sabo/find-definition?q=filename&amp;amp;blob_path=main.py&amp;amp;ref=main&amp;amp;language=Python&amp;amp;row=38&amp;amp;col=15&amp;amp;code_nav_context=BLOB_VIEW&amp;quot;,&amp;quot;user_id&amp;quot;:118432431}}&quot; class=&quot;pl-token&quot;&gt;&lt;font color=&quot;#090a0a&quot;&gt;filename&lt;/font&gt;&lt;/span&gt;&lt;/span&gt;&lt;span style=&quot;color: rgb(201, 209, 217); font-family: ui-monospace, SFMono-Regular, &amp;quot;SF Mono&amp;quot;, Menlo, Consolas, &amp;quot;Liberation Mono&amp;quot;, monospace; text-align: start;&quot;&gt;.&lt;/span&gt;&lt;span style=&quot;box-sizing: border-box; color: var(--color-prettylights-syntax-entity); font-family: ui-monospace, SFMono-Regular, &amp;quot;SF Mono&amp;quot;, Menlo, Consolas, &amp;quot;Liberation Mono&amp;quot;, monospace; text-align: start;&quot; class=&quot;pl-en&quot;&gt;&lt;span style=&quot;box-sizing: border-box;&quot; data-hydro-click-hmac=&quot;77dfa2cbdfb2818cf1e3816adac0544f1500b416189171be737afe1ea4b3ff7f&quot; data-hydro-click=&quot;{&amp;quot;event_type&amp;quot;:&amp;quot;code_navigation.click_on_symbol&amp;quot;,&amp;quot;payload&amp;quot;:{&amp;quot;action&amp;quot;:&amp;quot;click_on_symbol&amp;quot;,&amp;quot;repository_id&amp;quot;:571270798,&amp;quot;ref&amp;quot;:&amp;quot;main&amp;quot;,&amp;quot;language&amp;quot;:&amp;quot;Python&amp;quot;,&amp;quot;backend&amp;quot;:&amp;quot;ALEPH_PRECISE&amp;quot;,&amp;quot;code_nav_context&amp;quot;:&amp;quot;BLOB_VIEW&amp;quot;,&amp;quot;retry_backend&amp;quot;:&amp;quot;&amp;quot;,&amp;quot;cross_repo_results_included&amp;quot;:&amp;quot;CROSS_REPO_ENABLED&amp;quot;,&amp;quot;in_repo_result_count&amp;quot;:0,&amp;quot;cross_repo_result_count&amp;quot;:0,&amp;quot;originating_url&amp;quot;:&amp;quot;https://github.com/SOLIDusr/sabo/find-definition?q=endswith&amp;amp;blob_path=main.py&amp;amp;ref=main&amp;amp;language=Python&amp;amp;row=38&amp;amp;col=24&amp;amp;code_nav_context=BLOB_VIEW&amp;quot;,&amp;quot;user_id&amp;quot;:118432431}}&quot; class=&quot;pl-token&quot;&gt;endswith&lt;/span&gt;&lt;/span&gt;&lt;span style=&quot;color: rgb(201, 209, 217); font-family: ui-monospace, SFMono-Regular, &amp;quot;SF Mono&amp;quot;, Menlo, Consolas, &amp;quot;Liberation Mono&amp;quot;, monospace; text-align: start;&quot;&gt;(&lt;/span&gt;&lt;span style=&quot;box-sizing: border-box; color: var(--color-prettylights-syntax-string); font-family: ui-monospace, SFMono-Regular, &amp;quot;SF Mono&amp;quot;, Menlo, Consolas, &amp;quot;Liberation Mono&amp;quot;, monospace; text-align: start;&quot; class=&quot;pl-s&quot;&gt;&quot;.py&quot;&lt;/span&gt;&lt;span style=&quot;color: rgb(201, 209, 217); font-family: ui-monospace, SFMono-Regular, &amp;quot;SF Mono&amp;quot;, Menlo, Consolas, &amp;quot;Liberation Mono&amp;quot;, monospace; text-align: start;&quot;&gt;):&lt;/span&gt;&lt;/span&gt;" style="rhombus;whiteSpace=wrap;html=1;labelBackgroundColor=#FFFFFF;fontColor=#000000;" vertex="1" parent="1">
          <mxGeometry x="980" y="90" width="80" height="80" as="geometry" />
        </mxCell>
        <mxCell id="t7ZCOfmZ1178p3XGN3lE-34" value="" style="edgeStyle=orthogonalEdgeStyle;rounded=0;orthogonalLoop=1;jettySize=auto;html=1;fontColor=#000000;" edge="1" parent="1" source="t7ZCOfmZ1178p3XGN3lE-32" target="t7ZCOfmZ1178p3XGN3lE-33">
          <mxGeometry relative="1" as="geometry" />
        </mxCell>
        <mxCell id="t7ZCOfmZ1178p3XGN3lE-32" value="Async def&lt;br&gt;on_voce_state_update" style="shape=step;perimeter=stepPerimeter;whiteSpace=wrap;html=1;fixedSize=1;" vertex="1" parent="1">
          <mxGeometry x="475" y="160" width="150" height="80" as="geometry" />
        </mxCell>
        <mxCell id="t7ZCOfmZ1178p3XGN3lE-36" style="edgeStyle=orthogonalEdgeStyle;rounded=0;orthogonalLoop=1;jettySize=auto;html=1;fontColor=#000000;" edge="1" parent="1" source="t7ZCOfmZ1178p3XGN3lE-33" target="t7ZCOfmZ1178p3XGN3lE-35">
          <mxGeometry relative="1" as="geometry" />
        </mxCell>
        <mxCell id="t7ZCOfmZ1178p3XGN3lE-33" value="Медиа процессы" style="ellipse;whiteSpace=wrap;html=1;" vertex="1" parent="1">
          <mxGeometry x="680" y="170" width="120" height="60" as="geometry" />
        </mxCell>
        <mxCell id="t7ZCOfmZ1178p3XGN3lE-37" style="edgeStyle=orthogonalEdgeStyle;rounded=0;orthogonalLoop=1;jettySize=auto;html=1;entryX=0.5;entryY=1;entryDx=0;entryDy=0;fontColor=#000000;jumpStyle=sharp;shape=link;" edge="1" parent="1" source="t7ZCOfmZ1178p3XGN3lE-35" target="t7ZCOfmZ1178p3XGN3lE-6">
          <mxGeometry relative="1" as="geometry" />
        </mxCell>
        <mxCell id="t7ZCOfmZ1178p3XGN3lE-35" value="Синхронизация базы&lt;br&gt;данынх" style="ellipse;whiteSpace=wrap;html=1;labelBackgroundColor=#FFEDF7;fontColor=#000000;" vertex="1" parent="1">
          <mxGeometry x="680" y="290" width="120" height="60" as="geometry" />
        </mxCell>
        <mxCell id="t7ZCOfmZ1178p3XGN3lE-54" style="edgeStyle=orthogonalEdgeStyle;rounded=0;jumpStyle=sharp;orthogonalLoop=1;jettySize=auto;html=1;exitX=0.75;exitY=0;exitDx=0;exitDy=0;entryX=0;entryY=0.5;entryDx=0;entryDy=0;fontColor=#000000;" edge="1" parent="1" source="t7ZCOfmZ1178p3XGN3lE-41" target="t7ZCOfmZ1178p3XGN3lE-43">
          <mxGeometry relative="1" as="geometry" />
        </mxCell>
        <mxCell id="t7ZCOfmZ1178p3XGN3lE-55" style="edgeStyle=orthogonalEdgeStyle;rounded=0;jumpStyle=sharp;orthogonalLoop=1;jettySize=auto;html=1;exitX=1;exitY=0.25;exitDx=0;exitDy=0;entryX=0;entryY=0.5;entryDx=0;entryDy=0;fontColor=#000000;" edge="1" parent="1" source="t7ZCOfmZ1178p3XGN3lE-41" target="t7ZCOfmZ1178p3XGN3lE-45">
          <mxGeometry relative="1" as="geometry" />
        </mxCell>
        <mxCell id="t7ZCOfmZ1178p3XGN3lE-56" style="edgeStyle=orthogonalEdgeStyle;rounded=0;jumpStyle=sharp;orthogonalLoop=1;jettySize=auto;html=1;exitX=1;exitY=0.5;exitDx=0;exitDy=0;entryX=0;entryY=0.5;entryDx=0;entryDy=0;fontColor=#000000;" edge="1" parent="1" source="t7ZCOfmZ1178p3XGN3lE-41" target="t7ZCOfmZ1178p3XGN3lE-44">
          <mxGeometry relative="1" as="geometry" />
        </mxCell>
        <mxCell id="t7ZCOfmZ1178p3XGN3lE-57" style="edgeStyle=orthogonalEdgeStyle;rounded=0;jumpStyle=sharp;orthogonalLoop=1;jettySize=auto;html=1;exitX=1;exitY=0.75;exitDx=0;exitDy=0;entryX=0;entryY=0.5;entryDx=0;entryDy=0;fontColor=#000000;" edge="1" parent="1" source="t7ZCOfmZ1178p3XGN3lE-41" target="t7ZCOfmZ1178p3XGN3lE-46">
          <mxGeometry relative="1" as="geometry" />
        </mxCell>
        <mxCell id="t7ZCOfmZ1178p3XGN3lE-58" style="edgeStyle=orthogonalEdgeStyle;rounded=0;jumpStyle=sharp;orthogonalLoop=1;jettySize=auto;html=1;exitX=0.75;exitY=1;exitDx=0;exitDy=0;entryX=0;entryY=0.5;entryDx=0;entryDy=0;fontColor=#000000;" edge="1" parent="1" source="t7ZCOfmZ1178p3XGN3lE-41" target="t7ZCOfmZ1178p3XGN3lE-47">
          <mxGeometry relative="1" as="geometry" />
        </mxCell>
        <mxCell id="t7ZCOfmZ1178p3XGN3lE-41" value="&lt;span style=&quot;box-sizing: border-box; color: var(--color-prettylights-syntax-keyword); font-family: ui-monospace, SFMono-Regular, &amp;quot;SF Mono&amp;quot;, Menlo, Consolas, &amp;quot;Liberation Mono&amp;quot;, monospace; text-align: start;&quot; class=&quot;pl-k&quot;&gt;async&lt;/span&gt;&lt;span style=&quot;color: rgb(201, 209, 217); font-family: ui-monospace, SFMono-Regular, &amp;quot;SF Mono&amp;quot;, Menlo, Consolas, &amp;quot;Liberation Mono&amp;quot;, monospace; text-align: start;&quot;&gt; &lt;/span&gt;&lt;span style=&quot;box-sizing: border-box; color: var(--color-prettylights-syntax-keyword); font-family: ui-monospace, SFMono-Regular, &amp;quot;SF Mono&amp;quot;, Menlo, Consolas, &amp;quot;Liberation Mono&amp;quot;, monospace; text-align: start;&quot; class=&quot;pl-k&quot;&gt;def&lt;/span&gt;&lt;span style=&quot;color: rgb(201, 209, 217); font-family: ui-monospace, SFMono-Regular, &amp;quot;SF Mono&amp;quot;, Menlo, Consolas, &amp;quot;Liberation Mono&amp;quot;, monospace; text-align: start;&quot;&gt; &lt;/span&gt;&lt;span style=&quot;box-sizing: border-box; color: var(--color-prettylights-syntax-entity); font-family: ui-monospace, SFMono-Regular, &amp;quot;SF Mono&amp;quot;, Menlo, Consolas, &amp;quot;Liberation Mono&amp;quot;, monospace; text-align: start;&quot; class=&quot;pl-en&quot;&gt;&lt;span style=&quot;box-sizing: border-box;&quot; data-hydro-click-hmac=&quot;646c85bdbb8ad166ef14c92f4df708abfa61ce8fc9f54bea0933314b7ee7f935&quot; data-hydro-click=&quot;{&amp;quot;event_type&amp;quot;:&amp;quot;code_navigation.click_on_symbol&amp;quot;,&amp;quot;payload&amp;quot;:{&amp;quot;action&amp;quot;:&amp;quot;click_on_symbol&amp;quot;,&amp;quot;repository_id&amp;quot;:571270798,&amp;quot;ref&amp;quot;:&amp;quot;main&amp;quot;,&amp;quot;language&amp;quot;:&amp;quot;Python&amp;quot;,&amp;quot;backend&amp;quot;:&amp;quot;ALEPH_PRECISE&amp;quot;,&amp;quot;code_nav_context&amp;quot;:&amp;quot;BLOB_VIEW&amp;quot;,&amp;quot;retry_backend&amp;quot;:&amp;quot;&amp;quot;,&amp;quot;cross_repo_results_included&amp;quot;:&amp;quot;CROSS_REPO_ENABLED&amp;quot;,&amp;quot;in_repo_result_count&amp;quot;:1,&amp;quot;cross_repo_result_count&amp;quot;:0,&amp;quot;originating_url&amp;quot;:&amp;quot;https://github.com/SOLIDusr/sabo/find-definition?q=plugin&amp;amp;blob_path=main.py&amp;amp;ref=main&amp;amp;language=Python&amp;amp;row=98&amp;amp;col=10&amp;amp;code_nav_context=BLOB_VIEW&amp;quot;,&amp;quot;user_id&amp;quot;:118432431}}&quot; class=&quot;pl-token&quot;&gt;plugin&lt;/span&gt;&lt;/span&gt;&lt;span style=&quot;font-family: ui-monospace, SFMono-Regular, &amp;quot;SF Mono&amp;quot;, Menlo, Consolas, &amp;quot;Liberation Mono&amp;quot;, monospace; text-align: start;&quot;&gt;(&lt;/span&gt;&lt;span style=&quot;box-sizing: border-box; font-family: ui-monospace, SFMono-Regular, &amp;quot;SF Mono&amp;quot;, Menlo, Consolas, &amp;quot;Liberation Mono&amp;quot;, monospace; text-align: start;&quot; class=&quot;pl-s1&quot;&gt;&lt;span style=&quot;box-sizing: border-box;&quot; data-hydro-click-hmac=&quot;1c6ac55d9c73ef92f838d4ae9c1db2e7fb4f0aaec91f13ddc8e3c4854e2a2c44&quot; data-hydro-click=&quot;{&amp;quot;event_type&amp;quot;:&amp;quot;code_navigation.click_on_symbol&amp;quot;,&amp;quot;payload&amp;quot;:{&amp;quot;action&amp;quot;:&amp;quot;click_on_symbol&amp;quot;,&amp;quot;repository_id&amp;quot;:571270798,&amp;quot;ref&amp;quot;:&amp;quot;main&amp;quot;,&amp;quot;language&amp;quot;:&amp;quot;Python&amp;quot;,&amp;quot;backend&amp;quot;:&amp;quot;ALEPH_PRECISE&amp;quot;,&amp;quot;code_nav_context&amp;quot;:&amp;quot;BLOB_VIEW&amp;quot;,&amp;quot;retry_backend&amp;quot;:&amp;quot;&amp;quot;,&amp;quot;cross_repo_results_included&amp;quot;:&amp;quot;CROSS_REPO_ENABLED&amp;quot;,&amp;quot;in_repo_result_count&amp;quot;:1,&amp;quot;cross_repo_result_count&amp;quot;:0,&amp;quot;originating_url&amp;quot;:&amp;quot;https://github.com/SOLIDusr/sabo/find-definition?q=ctx&amp;amp;blob_path=main.py&amp;amp;ref=main&amp;amp;language=Python&amp;amp;row=98&amp;amp;col=17&amp;amp;code_nav_context=BLOB_VIEW&amp;quot;,&amp;quot;user_id&amp;quot;:118432431}}&quot; class=&quot;pl-token&quot;&gt;ctx&lt;/span&gt;&lt;/span&gt;&lt;span style=&quot;font-family: ui-monospace, SFMono-Regular, &amp;quot;SF Mono&amp;quot;, Menlo, Consolas, &amp;quot;Liberation Mono&amp;quot;, monospace; text-align: start;&quot;&gt;,&lt;/span&gt;&lt;span style=&quot;color: rgb(201, 209, 217); font-family: ui-monospace, SFMono-Regular, &amp;quot;SF Mono&amp;quot;, Menlo, Consolas, &amp;quot;Liberation Mono&amp;quot;, monospace; text-align: start;&quot;&gt; &lt;/span&gt;&lt;span style=&quot;box-sizing: border-box; font-family: ui-monospace, SFMono-Regular, &amp;quot;SF Mono&amp;quot;, Menlo, Consolas, &amp;quot;Liberation Mono&amp;quot;, monospace; text-align: start;&quot; class=&quot;pl-s1&quot;&gt;&lt;span style=&quot;box-sizing: border-box;&quot; data-hydro-click-hmac=&quot;30d1ec74a57878a261e59ccb118a051223409fe938a1d910fc833bbcbbccfb32&quot; data-hydro-click=&quot;{&amp;quot;event_type&amp;quot;:&amp;quot;code_navigation.click_on_symbol&amp;quot;,&amp;quot;payload&amp;quot;:{&amp;quot;action&amp;quot;:&amp;quot;click_on_symbol&amp;quot;,&amp;quot;repository_id&amp;quot;:571270798,&amp;quot;ref&amp;quot;:&amp;quot;main&amp;quot;,&amp;quot;language&amp;quot;:&amp;quot;Python&amp;quot;,&amp;quot;backend&amp;quot;:&amp;quot;ALEPH_PRECISE&amp;quot;,&amp;quot;code_nav_context&amp;quot;:&amp;quot;BLOB_VIEW&amp;quot;,&amp;quot;retry_backend&amp;quot;:&amp;quot;&amp;quot;,&amp;quot;cross_repo_results_included&amp;quot;:&amp;quot;CROSS_REPO_ENABLED&amp;quot;,&amp;quot;in_repo_result_count&amp;quot;:1,&amp;quot;cross_repo_result_count&amp;quot;:0,&amp;quot;originating_url&amp;quot;:&amp;quot;https://github.com/SOLIDusr/sabo/find-definition?q=todo&amp;amp;blob_path=main.py&amp;amp;ref=main&amp;amp;language=Python&amp;amp;row=98&amp;amp;col=22&amp;amp;code_nav_context=BLOB_VIEW&amp;quot;,&amp;quot;user_id&amp;quot;:118432431}}&quot; class=&quot;pl-token&quot;&gt;todo&lt;/span&gt;&lt;/span&gt;&lt;span style=&quot;font-family: ui-monospace, SFMono-Regular, &amp;quot;SF Mono&amp;quot;, Menlo, Consolas, &amp;quot;Liberation Mono&amp;quot;, monospace; text-align: start;&quot;&gt;: &lt;/span&gt;&lt;span style=&quot;box-sizing: border-box; font-family: ui-monospace, SFMono-Regular, &amp;quot;SF Mono&amp;quot;, Menlo, Consolas, &amp;quot;Liberation Mono&amp;quot;, monospace; text-align: start;&quot; class=&quot;pl-s1&quot;&gt;&lt;span style=&quot;box-sizing: border-box;&quot; data-hydro-click-hmac=&quot;0efcfa8100c2c61ffbf2ddd7efa68eda0eda74a023ca1c2d5cf1029468aebc49&quot; data-hydro-click=&quot;{&amp;quot;event_type&amp;quot;:&amp;quot;code_navigation.click_on_symbol&amp;quot;,&amp;quot;payload&amp;quot;:{&amp;quot;action&amp;quot;:&amp;quot;click_on_symbol&amp;quot;,&amp;quot;repository_id&amp;quot;:571270798,&amp;quot;ref&amp;quot;:&amp;quot;main&amp;quot;,&amp;quot;language&amp;quot;:&amp;quot;Python&amp;quot;,&amp;quot;backend&amp;quot;:&amp;quot;ALEPH_PRECISE&amp;quot;,&amp;quot;code_nav_context&amp;quot;:&amp;quot;BLOB_VIEW&amp;quot;,&amp;quot;retry_backend&amp;quot;:&amp;quot;&amp;quot;,&amp;quot;cross_repo_results_included&amp;quot;:&amp;quot;CROSS_REPO_ENABLED&amp;quot;,&amp;quot;in_repo_result_count&amp;quot;:0,&amp;quot;cross_repo_result_count&amp;quot;:0,&amp;quot;originating_url&amp;quot;:&amp;quot;https://github.com/SOLIDusr/sabo/find-definition?q=str&amp;amp;blob_path=main.py&amp;amp;ref=main&amp;amp;language=Python&amp;amp;row=98&amp;amp;col=28&amp;amp;code_nav_context=BLOB_VIEW&amp;quot;,&amp;quot;user_id&amp;quot;:118432431}}&quot; class=&quot;pl-token&quot;&gt;str&lt;/span&gt;&lt;/span&gt;&lt;span style=&quot;color: rgb(201, 209, 217); font-family: ui-monospace, SFMono-Regular, &amp;quot;SF Mono&amp;quot;, Menlo, Consolas, &amp;quot;Liberation Mono&amp;quot;, monospace; text-align: start;&quot;&gt; &lt;/span&gt;&lt;span style=&quot;box-sizing: border-box; color: var(--color-prettylights-syntax-constant); font-family: ui-monospace, SFMono-Regular, &amp;quot;SF Mono&amp;quot;, Menlo, Consolas, &amp;quot;Liberation Mono&amp;quot;, monospace; text-align: start;&quot; class=&quot;pl-c1&quot;&gt;=&lt;/span&gt;&lt;span style=&quot;color: rgb(201, 209, 217); font-family: ui-monospace, SFMono-Regular, &amp;quot;SF Mono&amp;quot;, Menlo, Consolas, &amp;quot;Liberation Mono&amp;quot;, monospace; text-align: start;&quot;&gt; &lt;/span&gt;&lt;span style=&quot;box-sizing: border-box; color: var(--color-prettylights-syntax-constant); font-family: ui-monospace, SFMono-Regular, &amp;quot;SF Mono&amp;quot;, Menlo, Consolas, &amp;quot;Liberation Mono&amp;quot;, monospace; text-align: start;&quot; class=&quot;pl-c1&quot;&gt;Non&lt;/span&gt;&lt;span style=&quot;box-sizing: border-box; font-family: ui-monospace, SFMono-Regular, &amp;quot;SF Mono&amp;quot;, Menlo, Consolas, &amp;quot;Liberation Mono&amp;quot;, monospace; text-align: start;&quot; class=&quot;pl-c1&quot;&gt;e&lt;/span&gt;&lt;span style=&quot;font-family: ui-monospace, SFMono-Regular, &amp;quot;SF Mono&amp;quot;, Menlo, Consolas, &amp;quot;Liberation Mono&amp;quot;, monospace; text-align: start;&quot;&gt;):&lt;/span&gt;" style="shape=step;perimeter=stepPerimeter;whiteSpace=wrap;html=1;fixedSize=1;" vertex="1" parent="1">
          <mxGeometry x="430" y="385" width="150" height="80" as="geometry" />
        </mxCell>
        <mxCell id="t7ZCOfmZ1178p3XGN3lE-60" style="edgeStyle=orthogonalEdgeStyle;rounded=0;jumpStyle=sharp;orthogonalLoop=1;jettySize=auto;html=1;fontColor=#000000;" edge="1" parent="1" source="t7ZCOfmZ1178p3XGN3lE-43">
          <mxGeometry relative="1" as="geometry">
            <mxPoint x="800" y="425" as="targetPoint" />
          </mxGeometry>
        </mxCell>
        <mxCell id="t7ZCOfmZ1178p3XGN3lE-43" value="todo is None" style="rhombus;whiteSpace=wrap;html=1;labelBackgroundColor=#FFEDF7;fontColor=#000000;" vertex="1" parent="1">
          <mxGeometry x="650" y="385" width="80" height="80" as="geometry" />
        </mxCell>
        <mxCell id="t7ZCOfmZ1178p3XGN3lE-77" style="edgeStyle=orthogonalEdgeStyle;rounded=0;jumpStyle=sharp;orthogonalLoop=1;jettySize=auto;html=1;entryX=-0.014;entryY=0.509;entryDx=0;entryDy=0;entryPerimeter=0;fontColor=#000000;" edge="1" parent="1" source="t7ZCOfmZ1178p3XGN3lE-44" target="t7ZCOfmZ1178p3XGN3lE-74">
          <mxGeometry relative="1" as="geometry" />
        </mxCell>
        <mxCell id="t7ZCOfmZ1178p3XGN3lE-44" value="todo is &quot;-l&quot;" style="rhombus;whiteSpace=wrap;html=1;labelBackgroundColor=#FFEDF7;fontColor=#000000;" vertex="1" parent="1">
          <mxGeometry x="650" y="555" width="80" height="80" as="geometry" />
        </mxCell>
        <mxCell id="t7ZCOfmZ1178p3XGN3lE-68" value="" style="edgeStyle=orthogonalEdgeStyle;rounded=0;jumpStyle=sharp;orthogonalLoop=1;jettySize=auto;html=1;fontColor=#000000;" edge="1" parent="1" source="t7ZCOfmZ1178p3XGN3lE-45" target="t7ZCOfmZ1178p3XGN3lE-67">
          <mxGeometry relative="1" as="geometry" />
        </mxCell>
        <mxCell id="t7ZCOfmZ1178p3XGN3lE-45" value="todo is none&lt;br&gt;and todo not in&lt;br&gt;todos&lt;br&gt;" style="rhombus;whiteSpace=wrap;html=1;labelBackgroundColor=#FFEDF7;fontColor=#000000;" vertex="1" parent="1">
          <mxGeometry x="650" y="475" width="80" height="80" as="geometry" />
        </mxCell>
        <mxCell id="t7ZCOfmZ1178p3XGN3lE-78" style="edgeStyle=orthogonalEdgeStyle;rounded=0;jumpStyle=sharp;orthogonalLoop=1;jettySize=auto;html=1;entryX=0;entryY=0;entryDx=10;entryDy=50;entryPerimeter=0;fontColor=#000000;" edge="1" parent="1" source="t7ZCOfmZ1178p3XGN3lE-46" target="t7ZCOfmZ1178p3XGN3lE-74">
          <mxGeometry relative="1" as="geometry" />
        </mxCell>
        <mxCell id="t7ZCOfmZ1178p3XGN3lE-46" value="todo is &quot;-r&quot;" style="rhombus;whiteSpace=wrap;html=1;labelBackgroundColor=#FFEDF7;fontColor=#000000;" vertex="1" parent="1">
          <mxGeometry x="650" y="635" width="80" height="80" as="geometry" />
        </mxCell>
        <mxCell id="t7ZCOfmZ1178p3XGN3lE-81" style="edgeStyle=orthogonalEdgeStyle;rounded=0;jumpStyle=sharp;orthogonalLoop=1;jettySize=auto;html=1;entryX=0;entryY=0;entryDx=10;entryDy=50;entryPerimeter=0;fontColor=#000000;" edge="1" parent="1" source="t7ZCOfmZ1178p3XGN3lE-47" target="t7ZCOfmZ1178p3XGN3lE-74">
          <mxGeometry relative="1" as="geometry" />
        </mxCell>
        <mxCell id="t7ZCOfmZ1178p3XGN3lE-47" value="todo is &quot;-u&quot;" style="rhombus;whiteSpace=wrap;html=1;labelBackgroundColor=#FFEDF7;fontColor=#000000;" vertex="1" parent="1">
          <mxGeometry x="650" y="715" width="80" height="80" as="geometry" />
        </mxCell>
        <mxCell id="t7ZCOfmZ1178p3XGN3lE-66" value="" style="edgeStyle=orthogonalEdgeStyle;rounded=0;jumpStyle=sharp;orthogonalLoop=1;jettySize=auto;html=1;fontColor=#000000;" edge="1" parent="1" source="t7ZCOfmZ1178p3XGN3lE-62" target="t7ZCOfmZ1178p3XGN3lE-65">
          <mxGeometry relative="1" as="geometry" />
        </mxCell>
        <mxCell id="t7ZCOfmZ1178p3XGN3lE-62" value="for filename in directory" style="html=1;dashed=0;whitespace=wrap;shape=mxgraph.dfd.loop;labelBackgroundColor=none;fontColor=#000000;" vertex="1" parent="1">
          <mxGeometry x="800" y="395" width="150" height="60" as="geometry" />
        </mxCell>
        <mxCell id="t7ZCOfmZ1178p3XGN3lE-65" value="print(filename)" style="shape=parallelogram;perimeter=parallelogramPerimeter;whiteSpace=wrap;html=1;fixedSize=1;fontColor=#000000;dashed=0;labelBackgroundColor=none;" vertex="1" parent="1">
          <mxGeometry x="960" y="395" width="120" height="60" as="geometry" />
        </mxCell>
        <mxCell id="t7ZCOfmZ1178p3XGN3lE-67" value="Error&lt;br&gt;" style="shape=parallelogram;perimeter=parallelogramPerimeter;whiteSpace=wrap;html=1;fixedSize=1;fontColor=#000000;labelBackgroundColor=#FFEDF7;" vertex="1" parent="1">
          <mxGeometry x="790" y="485" width="120" height="60" as="geometry" />
        </mxCell>
        <mxCell id="t7ZCOfmZ1178p3XGN3lE-73" style="edgeStyle=orthogonalEdgeStyle;rounded=0;orthogonalLoop=1;jettySize=auto;html=1;exitX=0;exitY=0;exitDx=130;exitDy=50;exitPerimeter=0;fontColor=#000000;" edge="1" parent="1" source="t7ZCOfmZ1178p3XGN3lE-74" target="t7ZCOfmZ1178p3XGN3lE-75">
          <mxGeometry relative="1" as="geometry" />
        </mxCell>
        <mxCell id="t7ZCOfmZ1178p3XGN3lE-74" value="&lt;span style=&quot;font-family: ui-monospace, SFMono-Regular, &amp;quot;SF Mono&amp;quot;, Menlo, Consolas, &amp;quot;Liberation Mono&amp;quot;, monospace; text-align: start;&quot;&gt; &lt;/span&gt;&lt;span style=&quot;background-color: rgb(255, 255, 255);&quot;&gt;&lt;span style=&quot;box-sizing: border-box; font-family: ui-monospace, SFMono-Regular, &amp;quot;SF Mono&amp;quot;, Menlo, Consolas, &amp;quot;Liberation Mono&amp;quot;, monospace; text-align: start;&quot; class=&quot;pl-k&quot;&gt;for&lt;/span&gt;&lt;span style=&quot;font-family: ui-monospace, SFMono-Regular, &amp;quot;SF Mono&amp;quot;, Menlo, Consolas, &amp;quot;Liberation Mono&amp;quot;, monospace; text-align: start;&quot;&gt; &lt;/span&gt;&lt;span style=&quot;box-sizing: border-box; font-family: ui-monospace, SFMono-Regular, &amp;quot;SF Mono&amp;quot;, Menlo, Consolas, &amp;quot;Liberation Mono&amp;quot;, monospace; text-align: start;&quot; class=&quot;pl-s1&quot;&gt;&lt;span style=&quot;box-sizing: border-box;&quot; data-hydro-click-hmac=&quot;2709f472d1348329b3521dda8397fa52a47083faf63a09d850aeb269e52d9eb9&quot; data-hydro-click=&quot;{&amp;quot;event_type&amp;quot;:&amp;quot;code_navigation.click_on_symbol&amp;quot;,&amp;quot;payload&amp;quot;:{&amp;quot;action&amp;quot;:&amp;quot;click_on_symbol&amp;quot;,&amp;quot;repository_id&amp;quot;:571270798,&amp;quot;ref&amp;quot;:&amp;quot;main&amp;quot;,&amp;quot;language&amp;quot;:&amp;quot;Python&amp;quot;,&amp;quot;backend&amp;quot;:&amp;quot;ALEPH_PRECISE&amp;quot;,&amp;quot;code_nav_context&amp;quot;:&amp;quot;BLOB_VIEW&amp;quot;,&amp;quot;retry_backend&amp;quot;:&amp;quot;&amp;quot;,&amp;quot;cross_repo_results_included&amp;quot;:&amp;quot;CROSS_REPO_ENABLED&amp;quot;,&amp;quot;in_repo_result_count&amp;quot;:1,&amp;quot;cross_repo_result_count&amp;quot;:0,&amp;quot;originating_url&amp;quot;:&amp;quot;https://github.com/SOLIDusr/sabo/find-definition?q=filename&amp;amp;blob_path=main.py&amp;amp;ref=main&amp;amp;language=Python&amp;amp;row=37&amp;amp;col=12&amp;amp;code_nav_context=BLOB_VIEW&amp;quot;,&amp;quot;user_id&amp;quot;:118432431}}&quot; class=&quot;pl-token&quot;&gt;filename&lt;/span&gt;&lt;/span&gt;&lt;span style=&quot;font-family: ui-monospace, SFMono-Regular, &amp;quot;SF Mono&amp;quot;, Menlo, Consolas, &amp;quot;Liberation Mono&amp;quot;, monospace; text-align: start;&quot;&gt; &lt;/span&gt;&lt;span style=&quot;box-sizing: border-box; font-family: ui-monospace, SFMono-Regular, &amp;quot;SF Mono&amp;quot;, Menlo, Consolas, &amp;quot;Liberation Mono&amp;quot;, monospace; text-align: start;&quot; class=&quot;pl-c1&quot;&gt;in&lt;/span&gt;&lt;span style=&quot;font-family: ui-monospace, SFMono-Regular, &amp;quot;SF Mono&amp;quot;, Menlo, Consolas, &amp;quot;Liberation Mono&amp;quot;, monospace; text-align: start;&quot;&gt; &lt;/span&gt;&lt;span style=&quot;box-sizing: border-box; font-family: ui-monospace, SFMono-Regular, &amp;quot;SF Mono&amp;quot;, Menlo, Consolas, &amp;quot;Liberation Mono&amp;quot;, monospace; text-align: start;&quot; class=&quot;pl-s1&quot;&gt;&lt;span style=&quot;box-sizing: border-box;&quot; data-hydro-click-hmac=&quot;dca1d906474da8fff63916e82cbf3ae94f3667a883f508943b82ddb728b173c5&quot; data-hydro-click=&quot;{&amp;quot;event_type&amp;quot;:&amp;quot;code_navigation.click_on_symbol&amp;quot;,&amp;quot;payload&amp;quot;:{&amp;quot;action&amp;quot;:&amp;quot;click_on_symbol&amp;quot;,&amp;quot;repository_id&amp;quot;:571270798,&amp;quot;ref&amp;quot;:&amp;quot;main&amp;quot;,&amp;quot;language&amp;quot;:&amp;quot;Python&amp;quot;,&amp;quot;backend&amp;quot;:&amp;quot;ALEPH_PRECISE&amp;quot;,&amp;quot;code_nav_context&amp;quot;:&amp;quot;BLOB_VIEW&amp;quot;,&amp;quot;retry_backend&amp;quot;:&amp;quot;&amp;quot;,&amp;quot;cross_repo_results_included&amp;quot;:&amp;quot;CROSS_REPO_ENABLED&amp;quot;,&amp;quot;in_repo_result_count&amp;quot;:1,&amp;quot;cross_repo_result_count&amp;quot;:1,&amp;quot;originating_url&amp;quot;:&amp;quot;https://github.com/SOLIDusr/sabo/find-definition?q=os&amp;amp;blob_path=main.py&amp;amp;ref=main&amp;amp;language=Python&amp;amp;row=37&amp;amp;col=24&amp;amp;code_nav_context=BLOB_VIEW&amp;quot;,&amp;quot;user_id&amp;quot;:118432431}}&quot; class=&quot;pl-token&quot;&gt;os&lt;/span&gt;&lt;/span&gt;&lt;span style=&quot;font-family: ui-monospace, SFMono-Regular, &amp;quot;SF Mono&amp;quot;, Menlo, Consolas, &amp;quot;Liberation Mono&amp;quot;, monospace; text-align: start;&quot;&gt;.&lt;/span&gt;&lt;span style=&quot;box-sizing: border-box; font-family: ui-monospace, SFMono-Regular, &amp;quot;SF Mono&amp;quot;, Menlo, Consolas, &amp;quot;Liberation Mono&amp;quot;, monospace; text-align: start;&quot; class=&quot;pl-en&quot;&gt;&lt;span style=&quot;box-sizing: border-box;&quot; data-hydro-click-hmac=&quot;b341691f6743bcb886b9175497640a245d4c138b7dff6f13d98f5f5079efc001&quot; data-hydro-click=&quot;{&amp;quot;event_type&amp;quot;:&amp;quot;code_navigation.click_on_symbol&amp;quot;,&amp;quot;payload&amp;quot;:{&amp;quot;action&amp;quot;:&amp;quot;click_on_symbol&amp;quot;,&amp;quot;repository_id&amp;quot;:571270798,&amp;quot;ref&amp;quot;:&amp;quot;main&amp;quot;,&amp;quot;language&amp;quot;:&amp;quot;Python&amp;quot;,&amp;quot;backend&amp;quot;:&amp;quot;ALEPH_PRECISE&amp;quot;,&amp;quot;code_nav_context&amp;quot;:&amp;quot;BLOB_VIEW&amp;quot;,&amp;quot;retry_backend&amp;quot;:&amp;quot;&amp;quot;,&amp;quot;cross_repo_results_included&amp;quot;:&amp;quot;CROSS_REPO_ENABLED&amp;quot;,&amp;quot;in_repo_result_count&amp;quot;:0,&amp;quot;cross_repo_result_count&amp;quot;:0,&amp;quot;originating_url&amp;quot;:&amp;quot;https://github.com/SOLIDusr/sabo/find-definition?q=listdir&amp;amp;blob_path=main.py&amp;amp;ref=main&amp;amp;language=Python&amp;amp;row=37&amp;amp;col=27&amp;amp;code_nav_context=BLOB_VIEW&amp;quot;,&amp;quot;user_id&amp;quot;:118432431}}&quot; class=&quot;pl-token&quot;&gt;listdir&lt;/span&gt;&lt;/span&gt;&lt;/span&gt;" style="html=1;dashed=0;whitespace=wrap;shape=mxgraph.dfd.loop" vertex="1" parent="1">
          <mxGeometry x="890" y="570" width="140" height="50" as="geometry" />
        </mxCell>
        <mxCell id="t7ZCOfmZ1178p3XGN3lE-95" style="edgeStyle=orthogonalEdgeStyle;rounded=0;jumpStyle=sharp;orthogonalLoop=1;jettySize=auto;html=1;fontColor=#000000;" edge="1" parent="1" source="t7ZCOfmZ1178p3XGN3lE-75">
          <mxGeometry relative="1" as="geometry">
            <mxPoint x="1270.0000000000005" y="265" as="targetPoint" />
          </mxGeometry>
        </mxCell>
        <mxCell id="t7ZCOfmZ1178p3XGN3lE-75" value="&lt;div style=&quot;text-align: start;&quot;&gt;&lt;font face=&quot;ui-monospace, SFMono-Regular, SF Mono, Menlo, Consolas, Liberation Mono, monospace&quot;&gt;&lt;span style=&quot;background-color: rgb(255, 237, 247);&quot;&gt;loads/reloads/unloads plugin&lt;/span&gt;&lt;/font&gt;&lt;/div&gt;&lt;div style=&quot;text-align: start;&quot;&gt;&lt;font face=&quot;ui-monospace, SFMono-Regular, SF Mono, Menlo, Consolas, Liberation Mono, monospace&quot;&gt;&lt;span style=&quot;background-color: rgb(255, 237, 247);&quot;&gt;&lt;br&gt;&lt;/span&gt;&lt;/font&gt;&lt;/div&gt;" style="html=1;dashed=0;whitespace=wrap;shape=mxgraph.dfd.loop;labelBackgroundColor=#FFFFFF;fontColor=#000000;" vertex="1" parent="1">
          <mxGeometry x="950" y="755" width="140" height="50" as="geometry" />
        </mxCell>
        <mxCell id="t7ZCOfmZ1178p3XGN3lE-76" value="&lt;span style=&quot;background-color: rgb(255, 255, 255);&quot;&gt;&lt;span style=&quot;box-sizing: border-box; color: var(--color-prettylights-syntax-keyword); font-family: ui-monospace, SFMono-Regular, &amp;quot;SF Mono&amp;quot;, Menlo, Consolas, &amp;quot;Liberation Mono&amp;quot;, monospace; text-align: start;&quot; class=&quot;pl-k&quot;&gt;if&lt;/span&gt;&lt;span style=&quot;color: rgb(201, 209, 217); font-family: ui-monospace, SFMono-Regular, &amp;quot;SF Mono&amp;quot;, Menlo, Consolas, &amp;quot;Liberation Mono&amp;quot;, monospace; text-align: start;&quot;&gt; &lt;/span&gt;&lt;span style=&quot;box-sizing: border-box; font-family: ui-monospace, SFMono-Regular, &amp;quot;SF Mono&amp;quot;, Menlo, Consolas, &amp;quot;Liberation Mono&amp;quot;, monospace; text-align: start;&quot; class=&quot;pl-s1&quot;&gt;&lt;span style=&quot;box-sizing: border-box;&quot; data-hydro-click-hmac=&quot;3f99242338ca0ac0b819d825556a4ebeaa0afd6c2d3ea71a7850abc61dfd66b3&quot; data-hydro-click=&quot;{&amp;quot;event_type&amp;quot;:&amp;quot;code_navigation.click_on_symbol&amp;quot;,&amp;quot;payload&amp;quot;:{&amp;quot;action&amp;quot;:&amp;quot;click_on_symbol&amp;quot;,&amp;quot;repository_id&amp;quot;:571270798,&amp;quot;ref&amp;quot;:&amp;quot;main&amp;quot;,&amp;quot;language&amp;quot;:&amp;quot;Python&amp;quot;,&amp;quot;backend&amp;quot;:&amp;quot;ALEPH_PRECISE&amp;quot;,&amp;quot;code_nav_context&amp;quot;:&amp;quot;BLOB_VIEW&amp;quot;,&amp;quot;retry_backend&amp;quot;:&amp;quot;&amp;quot;,&amp;quot;cross_repo_results_included&amp;quot;:&amp;quot;CROSS_REPO_ENABLED&amp;quot;,&amp;quot;in_repo_result_count&amp;quot;:1,&amp;quot;cross_repo_result_count&amp;quot;:0,&amp;quot;originating_url&amp;quot;:&amp;quot;https://github.com/SOLIDusr/sabo/find-definition?q=filename&amp;amp;blob_path=main.py&amp;amp;ref=main&amp;amp;language=Python&amp;amp;row=38&amp;amp;col=15&amp;amp;code_nav_context=BLOB_VIEW&amp;quot;,&amp;quot;user_id&amp;quot;:118432431}}&quot; class=&quot;pl-token&quot;&gt;&lt;font color=&quot;#090a0a&quot;&gt;filename&lt;/font&gt;&lt;/span&gt;&lt;/span&gt;&lt;span style=&quot;color: rgb(201, 209, 217); font-family: ui-monospace, SFMono-Regular, &amp;quot;SF Mono&amp;quot;, Menlo, Consolas, &amp;quot;Liberation Mono&amp;quot;, monospace; text-align: start;&quot;&gt;.&lt;/span&gt;&lt;span style=&quot;box-sizing: border-box; color: var(--color-prettylights-syntax-entity); font-family: ui-monospace, SFMono-Regular, &amp;quot;SF Mono&amp;quot;, Menlo, Consolas, &amp;quot;Liberation Mono&amp;quot;, monospace; text-align: start;&quot; class=&quot;pl-en&quot;&gt;&lt;span style=&quot;box-sizing: border-box;&quot; data-hydro-click-hmac=&quot;77dfa2cbdfb2818cf1e3816adac0544f1500b416189171be737afe1ea4b3ff7f&quot; data-hydro-click=&quot;{&amp;quot;event_type&amp;quot;:&amp;quot;code_navigation.click_on_symbol&amp;quot;,&amp;quot;payload&amp;quot;:{&amp;quot;action&amp;quot;:&amp;quot;click_on_symbol&amp;quot;,&amp;quot;repository_id&amp;quot;:571270798,&amp;quot;ref&amp;quot;:&amp;quot;main&amp;quot;,&amp;quot;language&amp;quot;:&amp;quot;Python&amp;quot;,&amp;quot;backend&amp;quot;:&amp;quot;ALEPH_PRECISE&amp;quot;,&amp;quot;code_nav_context&amp;quot;:&amp;quot;BLOB_VIEW&amp;quot;,&amp;quot;retry_backend&amp;quot;:&amp;quot;&amp;quot;,&amp;quot;cross_repo_results_included&amp;quot;:&amp;quot;CROSS_REPO_ENABLED&amp;quot;,&amp;quot;in_repo_result_count&amp;quot;:0,&amp;quot;cross_repo_result_count&amp;quot;:0,&amp;quot;originating_url&amp;quot;:&amp;quot;https://github.com/SOLIDusr/sabo/find-definition?q=endswith&amp;amp;blob_path=main.py&amp;amp;ref=main&amp;amp;language=Python&amp;amp;row=38&amp;amp;col=24&amp;amp;code_nav_context=BLOB_VIEW&amp;quot;,&amp;quot;user_id&amp;quot;:118432431}}&quot; class=&quot;pl-token&quot;&gt;endswith&lt;/span&gt;&lt;/span&gt;&lt;span style=&quot;color: rgb(201, 209, 217); font-family: ui-monospace, SFMono-Regular, &amp;quot;SF Mono&amp;quot;, Menlo, Consolas, &amp;quot;Liberation Mono&amp;quot;, monospace; text-align: start;&quot;&gt;(&lt;/span&gt;&lt;span style=&quot;box-sizing: border-box; color: var(--color-prettylights-syntax-string); font-family: ui-monospace, SFMono-Regular, &amp;quot;SF Mono&amp;quot;, Menlo, Consolas, &amp;quot;Liberation Mono&amp;quot;, monospace; text-align: start;&quot; class=&quot;pl-s&quot;&gt;&quot;.py&quot;&lt;/span&gt;&lt;span style=&quot;color: rgb(201, 209, 217); font-family: ui-monospace, SFMono-Regular, &amp;quot;SF Mono&amp;quot;, Menlo, Consolas, &amp;quot;Liberation Mono&amp;quot;, monospace; text-align: start;&quot;&gt;):&lt;/span&gt;&lt;/span&gt;" style="rhombus;whiteSpace=wrap;html=1;labelBackgroundColor=#FFFFFF;fontColor=#000000;" vertex="1" parent="1">
          <mxGeometry x="980" y="635" width="80" height="80" as="geometry" />
        </mxCell>
        <mxCell id="t7ZCOfmZ1178p3XGN3lE-84" style="edgeStyle=orthogonalEdgeStyle;rounded=0;jumpStyle=sharp;orthogonalLoop=1;jettySize=auto;html=1;entryX=0;entryY=0;entryDx=63.75;entryDy=70;entryPerimeter=0;fontColor=#000000;" edge="1" parent="1" source="t7ZCOfmZ1178p3XGN3lE-82" target="t7ZCOfmZ1178p3XGN3lE-2">
          <mxGeometry relative="1" as="geometry" />
        </mxCell>
        <mxCell id="t7ZCOfmZ1178p3XGN3lE-82" value="bot.run(token)" style="rounded=1;whiteSpace=wrap;html=1;labelBackgroundColor=none;fontColor=#000000;" vertex="1" parent="1">
          <mxGeometry x="360" y="590" width="120" height="60" as="geometry" />
        </mxCell>
        <mxCell id="t7ZCOfmZ1178p3XGN3lE-93" style="edgeStyle=orthogonalEdgeStyle;rounded=0;jumpStyle=sharp;orthogonalLoop=1;jettySize=auto;html=1;exitX=0.75;exitY=0;exitDx=0;exitDy=0;entryX=0;entryY=0.5;entryDx=0;entryDy=0;entryPerimeter=0;fontColor=#000000;" edge="1" parent="1" source="t7ZCOfmZ1178p3XGN3lE-87" target="t7ZCOfmZ1178p3XGN3lE-2">
          <mxGeometry relative="1" as="geometry" />
        </mxCell>
        <mxCell id="t7ZCOfmZ1178p3XGN3lE-87" value="Imports" style="swimlane;whiteSpace=wrap;html=1;labelBackgroundColor=none;fontColor=#000000;" vertex="1" parent="1">
          <mxGeometry x="-45" y="425" width="200" height="200" as="geometry" />
        </mxCell>
        <mxCell id="t7ZCOfmZ1178p3XGN3lE-89" value="import discord&lt;br&gt;import sqlite3&lt;br&gt;from discord.ext import commands&lt;br&gt;from config import *import time&lt;br&gt;import math&lt;br&gt;import os" style="text;html=1;align=center;verticalAlign=middle;resizable=0;points=[];autosize=1;strokeColor=none;fillColor=none;fontColor=#000000;" vertex="1" parent="t7ZCOfmZ1178p3XGN3lE-87">
          <mxGeometry x="-10" y="30" width="210" height="100" as="geometry" />
        </mxCell>
        <mxCell id="t7ZCOfmZ1178p3XGN3lE-100" style="edgeStyle=orthogonalEdgeStyle;rounded=0;jumpStyle=sharp;orthogonalLoop=1;jettySize=auto;html=1;fontColor=#000000;startArrow=none;" edge="1" parent="1" source="t7ZCOfmZ1178p3XGN3lE-99">
          <mxGeometry relative="1" as="geometry">
            <mxPoint x="1405" y="437.5" as="targetPoint" />
          </mxGeometry>
        </mxCell>
        <mxCell id="t7ZCOfmZ1178p3XGN3lE-101" value="Start" style="strokeWidth=2;html=1;shape=mxgraph.flowchart.start_1;whiteSpace=wrap;" vertex="1" parent="1">
          <mxGeometry x="1270" y="210" width="110" height="70" as="geometry" />
        </mxCell>
        <mxCell id="t7ZCOfmZ1178p3XGN3lE-107" style="edgeStyle=orthogonalEdgeStyle;rounded=0;jumpStyle=sharp;orthogonalLoop=1;jettySize=auto;html=1;exitX=1;exitY=0;exitDx=0;exitDy=0;fontColor=#000000;" edge="1" parent="1" source="t7ZCOfmZ1178p3XGN3lE-102" target="t7ZCOfmZ1178p3XGN3lE-110">
          <mxGeometry relative="1" as="geometry">
            <mxPoint x="1600" y="360" as="targetPoint" />
            <Array as="points">
              <mxPoint x="1505" y="360" />
              <mxPoint x="1680" y="360" />
            </Array>
          </mxGeometry>
        </mxCell>
        <mxCell id="t7ZCOfmZ1178p3XGN3lE-102" value="Imports" style="swimlane;whiteSpace=wrap;html=1;labelBackgroundColor=none;fontColor=#000000;" vertex="1" parent="1">
          <mxGeometry x="1305" y="435" width="200" height="200" as="geometry" />
        </mxCell>
        <mxCell id="t7ZCOfmZ1178p3XGN3lE-103" value="import discord&amp;nbsp;&lt;br&gt;&amp;nbsp;from discord.ext import commands" style="text;html=1;align=center;verticalAlign=middle;resizable=0;points=[];autosize=1;strokeColor=none;fillColor=none;fontColor=#000000;" vertex="1" parent="t7ZCOfmZ1178p3XGN3lE-102">
          <mxGeometry x="-10" y="60" width="210" height="40" as="geometry" />
        </mxCell>
        <mxCell id="t7ZCOfmZ1178p3XGN3lE-109" style="edgeStyle=orthogonalEdgeStyle;rounded=0;jumpStyle=sharp;orthogonalLoop=1;jettySize=auto;html=1;exitX=1;exitY=0.75;exitDx=0;exitDy=0;fontColor=#000000;" edge="1" parent="1" source="t7ZCOfmZ1178p3XGN3lE-99">
          <mxGeometry relative="1" as="geometry">
            <mxPoint x="1540" y="360" as="targetPoint" />
            <Array as="points">
              <mxPoint x="1465" y="360" />
            </Array>
          </mxGeometry>
        </mxCell>
        <mxCell id="t7ZCOfmZ1178p3XGN3lE-112" style="edgeStyle=orthogonalEdgeStyle;rounded=0;jumpStyle=sharp;orthogonalLoop=1;jettySize=auto;html=1;exitX=1;exitY=0.75;exitDx=0;exitDy=0;entryX=0.5;entryY=0;entryDx=0;entryDy=0;fontColor=#000000;" edge="1" parent="1" source="t7ZCOfmZ1178p3XGN3lE-99" target="t7ZCOfmZ1178p3XGN3lE-111">
          <mxGeometry relative="1" as="geometry" />
        </mxCell>
        <mxCell id="t7ZCOfmZ1178p3XGN3lE-114" style="edgeStyle=orthogonalEdgeStyle;rounded=0;jumpStyle=sharp;orthogonalLoop=1;jettySize=auto;html=1;exitX=1;exitY=0.75;exitDx=0;exitDy=0;fontColor=#000000;" edge="1" parent="1" source="t7ZCOfmZ1178p3XGN3lE-99">
          <mxGeometry relative="1" as="geometry">
            <mxPoint x="1820" y="365" as="targetPoint" />
          </mxGeometry>
        </mxCell>
        <mxCell id="t7ZCOfmZ1178p3XGN3lE-132" style="edgeStyle=orthogonalEdgeStyle;rounded=0;jumpStyle=sharp;orthogonalLoop=1;jettySize=auto;html=1;exitX=1;exitY=0.5;exitDx=0;exitDy=0;fontSize=22;fontColor=#000000;" edge="1" parent="1" source="t7ZCOfmZ1178p3XGN3lE-99">
          <mxGeometry relative="1" as="geometry">
            <mxPoint x="1610" y="580" as="targetPoint" />
          </mxGeometry>
        </mxCell>
        <mxCell id="t7ZCOfmZ1178p3XGN3lE-99" value="Определение Global&amp;nbsp;&lt;br&gt;переменных" style="rounded=1;whiteSpace=wrap;html=1;" vertex="1" parent="1">
          <mxGeometry x="1345" y="320" width="120" height="60" as="geometry" />
        </mxCell>
        <mxCell id="t7ZCOfmZ1178p3XGN3lE-104" value="" style="edgeStyle=orthogonalEdgeStyle;rounded=0;jumpStyle=sharp;orthogonalLoop=1;jettySize=auto;html=1;fontColor=#000000;endArrow=none;" edge="1" parent="1" source="t7ZCOfmZ1178p3XGN3lE-101" target="t7ZCOfmZ1178p3XGN3lE-99">
          <mxGeometry relative="1" as="geometry">
            <mxPoint x="1405" y="437.5" as="targetPoint" />
            <mxPoint x="1380" y="245.05263157894728" as="sourcePoint" />
          </mxGeometry>
        </mxCell>
        <mxCell id="t7ZCOfmZ1178p3XGN3lE-130" style="edgeStyle=orthogonalEdgeStyle;rounded=0;jumpStyle=sharp;orthogonalLoop=1;jettySize=auto;html=1;entryX=0.314;entryY=-0.008;entryDx=0;entryDy=0;entryPerimeter=0;fontSize=22;fontColor=#000000;" edge="1" parent="1" source="t7ZCOfmZ1178p3XGN3lE-110" target="t7ZCOfmZ1178p3XGN3lE-115">
          <mxGeometry relative="1" as="geometry" />
        </mxCell>
        <mxCell id="t7ZCOfmZ1178p3XGN3lE-110" value="Подключение&amp;nbsp;&lt;br&gt;к&amp;nbsp;&lt;br&gt;Discord API" style="shape=display;whiteSpace=wrap;html=1;" vertex="1" parent="1">
          <mxGeometry x="1615" y="260" width="130" height="70" as="geometry" />
        </mxCell>
        <mxCell id="t7ZCOfmZ1178p3XGN3lE-111" value="DataBase" style="shape=datastore;whiteSpace=wrap;html=1;" vertex="1" parent="1">
          <mxGeometry x="1650" y="433.5" width="60" height="60" as="geometry" />
        </mxCell>
        <mxCell id="t7ZCOfmZ1178p3XGN3lE-128" style="edgeStyle=orthogonalEdgeStyle;rounded=0;jumpStyle=sharp;orthogonalLoop=1;jettySize=auto;html=1;entryX=1;entryY=0.5;entryDx=0;entryDy=0;fontSize=22;fontColor=#000000;shape=link;" edge="1" parent="1" source="t7ZCOfmZ1178p3XGN3lE-115" target="t7ZCOfmZ1178p3XGN3lE-111">
          <mxGeometry relative="1" as="geometry" />
        </mxCell>
        <mxCell id="t7ZCOfmZ1178p3XGN3lE-129" style="edgeStyle=orthogonalEdgeStyle;rounded=0;jumpStyle=sharp;orthogonalLoop=1;jettySize=auto;html=1;exitX=0.75;exitY=0;exitDx=0;exitDy=0;entryX=0;entryY=0;entryDx=63.75;entryDy=0;entryPerimeter=0;fontSize=22;fontColor=#000000;shape=link;" edge="1" parent="1" source="t7ZCOfmZ1178p3XGN3lE-115" target="t7ZCOfmZ1178p3XGN3lE-110">
          <mxGeometry relative="1" as="geometry" />
        </mxCell>
        <mxCell id="t7ZCOfmZ1178p3XGN3lE-139" style="edgeStyle=orthogonalEdgeStyle;rounded=0;jumpStyle=sharp;orthogonalLoop=1;jettySize=auto;html=1;exitX=1;exitY=0;exitDx=0;exitDy=0;entryX=0.5;entryY=0;entryDx=0;entryDy=0;fontSize=22;fontColor=#000000;" edge="1" parent="1" source="t7ZCOfmZ1178p3XGN3lE-115" target="t7ZCOfmZ1178p3XGN3lE-99">
          <mxGeometry relative="1" as="geometry">
            <Array as="points">
              <mxPoint x="1980" y="210" />
              <mxPoint x="1405" y="210" />
            </Array>
          </mxGeometry>
        </mxCell>
        <mxCell id="t7ZCOfmZ1178p3XGN3lE-115" value="class Name(commands.Cog)" style="swimlane;html=1;fontStyle=1;align=center;verticalAlign=top;childLayout=stackLayout;horizontal=1;startSize=26;horizontalStack=0;resizeParent=1;resizeLast=0;collapsible=1;marginBottom=0;swimlaneFillColor=#ffffff;rounded=0;shadow=0;comic=0;labelBackgroundColor=none;strokeWidth=1;fillColor=none;fontFamily=Verdana;fontSize=12" vertex="1" parent="1">
          <mxGeometry x="1820" y="350" width="160" height="227" as="geometry" />
        </mxCell>
        <mxCell id="t7ZCOfmZ1178p3XGN3lE-116" value="+ field: type" style="text;html=1;strokeColor=none;fillColor=none;align=left;verticalAlign=top;spacingLeft=4;spacingRight=4;whiteSpace=wrap;overflow=hidden;rotatable=0;points=[[0,0.5],[1,0.5]];portConstraint=eastwest;" vertex="1" parent="t7ZCOfmZ1178p3XGN3lE-115">
          <mxGeometry y="26" width="160" height="26" as="geometry" />
        </mxCell>
        <mxCell id="t7ZCOfmZ1178p3XGN3lE-121" value="" style="line;html=1;strokeWidth=1;fillColor=none;align=left;verticalAlign=middle;spacingTop=-1;spacingLeft=3;spacingRight=3;rotatable=0;labelPosition=right;points=[];portConstraint=eastwest;" vertex="1" parent="t7ZCOfmZ1178p3XGN3lE-115">
          <mxGeometry y="52" width="160" height="8" as="geometry" />
        </mxCell>
        <mxCell id="t7ZCOfmZ1178p3XGN3lE-122" value="+ method(self)" style="text;html=1;strokeColor=none;fillColor=none;align=left;verticalAlign=top;spacingLeft=4;spacingRight=4;whiteSpace=wrap;overflow=hidden;rotatable=0;points=[[0,0.5],[1,0.5]];portConstraint=eastwest;" vertex="1" parent="t7ZCOfmZ1178p3XGN3lE-115">
          <mxGeometry y="60" width="160" height="26" as="geometry" />
        </mxCell>
        <mxCell id="t7ZCOfmZ1178p3XGN3lE-123" value="+ method(def): def" style="text;html=1;strokeColor=none;fillColor=none;align=left;verticalAlign=top;spacingLeft=4;spacingRight=4;whiteSpace=wrap;overflow=hidden;rotatable=0;points=[[0,0.5],[1,0.5]];portConstraint=eastwest;" vertex="1" parent="t7ZCOfmZ1178p3XGN3lE-115">
          <mxGeometry y="86" width="160" height="26" as="geometry" />
        </mxCell>
        <mxCell id="t7ZCOfmZ1178p3XGN3lE-126" value="" style="html=1;verticalLabelPosition=bottom;align=center;labelBackgroundColor=#ffffff;verticalAlign=top;strokeWidth=2;strokeColor=#0080F0;shadow=0;dashed=0;shape=mxgraph.ios7.icons.message;fontColor=#000000;" vertex="1" parent="1">
          <mxGeometry x="1280" y="10" width="310" height="179" as="geometry" />
        </mxCell>
        <mxCell id="t7ZCOfmZ1178p3XGN3lE-127" value="&lt;font style=&quot;font-size: 22px;&quot;&gt;Количество Cogs &lt;br&gt;не ограничено. &lt;br&gt;Показан базовый пример &lt;br&gt;работы Cog&lt;/font&gt;" style="text;html=1;align=center;verticalAlign=middle;resizable=0;points=[];autosize=1;strokeColor=none;fillColor=none;fontColor=#000000;" vertex="1" parent="1">
          <mxGeometry x="1295" y="20" width="280" height="120" as="geometry" />
        </mxCell>
        <mxCell id="t7ZCOfmZ1178p3XGN3lE-138" style="edgeStyle=orthogonalEdgeStyle;rounded=0;jumpStyle=sharp;orthogonalLoop=1;jettySize=auto;html=1;exitX=0.75;exitY=0;exitDx=0;exitDy=0;exitPerimeter=0;entryX=1.005;entryY=0.089;entryDx=0;entryDy=0;entryPerimeter=0;fontSize=22;fontColor=#000000;" edge="1" parent="1" source="t7ZCOfmZ1178p3XGN3lE-133" target="t7ZCOfmZ1178p3XGN3lE-122">
          <mxGeometry relative="1" as="geometry" />
        </mxCell>
        <mxCell id="t7ZCOfmZ1178p3XGN3lE-133" value="Прослушивание&lt;br&gt;Discord API до вызова&amp;nbsp;&lt;br&gt;функции&lt;br&gt;" style="points=[[0.25,0,0],[0.5,0,0],[0.75,0,0],[1,0.25,0],[1,0.5,0],[1,0.75,0],[0.75,1,0],[0.5,1,0],[0.25,1,0],[0,0.75,0],[0,0.5,0],[0,0.25,0]];shape=mxgraph.bpmn.task;whiteSpace=wrap;rectStyle=rounded;size=10;html=1;taskMarker=abstract;isLoopStandard=1;labelBackgroundColor=none;fontSize=22;fontColor=#000000;" vertex="1" parent="1">
          <mxGeometry x="1820" y="635" width="250" height="153" as="geometry" />
        </mxCell>
        <mxCell id="t7ZCOfmZ1178p3XGN3lE-136" style="edgeStyle=orthogonalEdgeStyle;rounded=0;jumpStyle=sharp;orthogonalLoop=1;jettySize=auto;html=1;exitX=0.5;exitY=1;exitDx=0;exitDy=0;entryX=0;entryY=0;entryDx=95;entryDy=70;entryPerimeter=0;fontSize=22;fontColor=#000000;shape=link;" edge="1" parent="1" source="t7ZCOfmZ1178p3XGN3lE-135" target="t7ZCOfmZ1178p3XGN3lE-2">
          <mxGeometry relative="1" as="geometry" />
        </mxCell>
        <mxCell id="t7ZCOfmZ1178p3XGN3lE-137" style="edgeStyle=orthogonalEdgeStyle;rounded=0;jumpStyle=sharp;orthogonalLoop=1;jettySize=auto;html=1;exitX=1;exitY=0.5;exitDx=0;exitDy=0;entryX=0;entryY=0.5;entryDx=0;entryDy=0;entryPerimeter=0;fontSize=22;fontColor=#000000;" edge="1" parent="1" source="t7ZCOfmZ1178p3XGN3lE-135" target="t7ZCOfmZ1178p3XGN3lE-133">
          <mxGeometry relative="1" as="geometry" />
        </mxCell>
        <mxCell id="t7ZCOfmZ1178p3XGN3lE-135" value="Async def setup(bot)" style="shape=step;perimeter=stepPerimeter;whiteSpace=wrap;html=1;fixedSize=1;" vertex="1" parent="1">
          <mxGeometry x="1550" y="580" width="150" height="80" as="geometry" />
        </mxCell>
      </root>
    </mxGraphModel>
  </diagram>
</mxfile>
